<?xml version="1.0" encoding="utf-8"?>
<!-- Generator: Adobe Illustrator 17.1.0, SVG Export Plug-In . SVG Version: 6.00 Build 0)  -->
<!DOCTYPE svg PUBLIC "-//W3C//DTD SVG 1.1//EN" "http://www.w3.org/Graphics/SVG/1.1/DTD/svg11.dtd">
<svg version="1.1" id="Layer_1" xmlns="http://www.w3.org/2000/svg" xmlns:xlink="http://www.w3.org/1999/xlink" x="0px" y="0px"
	 viewBox="0 0 200 200" enable-background="new 0 0 200 200" xml:space="preserve">
<rect x="20.275" y="42.121" fill="none" width="311.725" height="184.225"/>
<text transform="matrix(1 0 0 1 20.2753 141.3339)"><tspan x="0" y="0" font-family="'UniversLTStd-LightUltraCn'" font-size="137.4172">K</tspan><tspan x="38.202" y="0" font-family="'UniversLTStd-LightUltraCn'" font-size="137.4172" letter-spacing="-10">	</tspan><tspan x="46.234" y="0" font-family="'UniversLTStd-LightUltraCn'" font-size="137.4172" letter-spacing="-11"> </tspan><tspan x="53.79" y="0" font-family="'UniversLTStd-LightUltraCn'" font-size="137.4172">ral</tspan></text>
<g>
	<path d="M73.561,91.753l-12.229,49.742h-9.069l14.291-53.865l-4.28-14.866l8.137-0.091l3.151,12.209"/>
</g>
<line fill="none" stroke="#000000" stroke-miterlimit="10" x1="42" y1="87.5" x2="69" y2="87.5"/>
<line fill="none" stroke="#000000" stroke-width="1.6355" stroke-miterlimit="10" x1="50.517" y1="87.038" x2="55.487" y2="130.493"/>
<line fill="none" stroke="#000000" stroke-width="1.2577" stroke-miterlimit="10" x1="63.05" y1="73.192" x2="49.89" y2="87.74"/>
<line fill="none" stroke="#000000" stroke-width="1.1403" stroke-miterlimit="10" x1="47.218" y1="71.84" x2="61.078" y2="87.963"/>
<polygon points="44.487,73.394 44.482,72.135 70.276,72.024 70.545,73.192 "/>
<line fill="none" stroke="#000000" stroke-width="1.6355" stroke-miterlimit="10" x1="61.312" y1="87.128" x2="54.966" y2="130.403"/>
</svg>
